<svg width="145" height="46" viewBox="0 0 145 46" fill="none" xmlns="http://www.w3.org/2000/svg">
<g clip-path="url(#clip0_160_860)">
<path d="M31.1979 17.4242C30.572 16.7432 29.8077 16.2138 28.9056 15.8358C28.0035 15.4586 26.9629 15.2696 25.7846 15.2696C24.3661 15.2696 23.0914 15.6055 21.959 16.278C20.8266 16.9506 19.9291 17.8756 19.2658 19.0539C18.6032 20.2322 18.2711 21.5773 18.2711 23.0869C18.2711 24.5965 18.5932 25.8673 19.2382 27.064C19.8825 28.2614 20.7853 29.2094 21.9452 29.9087C23.1052 30.6088 24.4679 30.9585 26.0333 30.9585C27.0647 30.9585 28.0127 30.8016 28.878 30.4887C29.7434 30.1757 30.4894 29.7427 31.1153 29.1903C31.7411 28.6378 32.2017 28.0028 32.4963 27.2843L29.458 25.8207C29.1267 26.3731 28.6799 26.8153 28.1183 27.1466C27.5567 27.4779 26.8795 27.6439 26.0884 27.6439C25.2973 27.6439 24.5413 27.455 23.9338 27.0778C23.3263 26.7005 22.8657 26.1711 22.5528 25.4894C22.3707 25.0938 22.2551 24.6615 22.2031 24.1909H32.9653C33.0204 23.9698 33.0617 23.7212 33.0893 23.4449C33.1168 23.1687 33.1306 22.8925 33.1306 22.6163C33.1306 21.6041 32.9646 20.6553 32.6333 19.7716C32.302 18.8879 31.823 18.1051 31.1971 17.4234L31.1979 17.4242ZM23.8091 18.9024C24.3707 18.5252 25.0287 18.3362 25.7839 18.3362C26.5391 18.3362 27.1925 18.5252 27.7449 18.9024C28.2973 19.2804 28.6883 19.7961 28.9186 20.4495C29.015 20.7242 29.0747 21.0141 29.0984 21.3194H22.3056C22.3638 21.0394 22.4403 20.7762 22.5382 20.5321C22.8236 19.8236 23.2467 19.2804 23.8091 18.9024Z" fill="#212B46"/>
<path d="M79.592 18.7226C79.9325 18.4647 80.3977 18.3362 80.9868 18.3362C81.742 18.3362 82.4138 18.5343 83.0029 18.9299C83.5921 19.3262 84.0152 19.8549 84.2738 20.5183L87.1186 19.1648C86.6579 17.9314 85.8798 16.9735 84.7849 16.2925C83.6893 15.6116 82.423 15.2703 80.9868 15.2703C79.9004 15.2703 78.9332 15.4639 78.0863 15.8503C77.2393 16.2367 76.5759 16.7753 76.0977 17.4662C75.6187 18.1564 75.3792 18.9628 75.3792 19.8833C75.3792 20.933 75.706 21.8397 76.3601 22.604C77.0136 23.3684 77.9761 23.9346 79.2462 24.3026L81.7321 24.9928C82.0634 25.0853 82.3534 25.2001 82.602 25.3378C82.8507 25.4756 83.0443 25.6324 83.182 25.8076C83.3205 25.9828 83.3893 26.2078 83.3893 26.484C83.3893 26.9446 83.2095 27.3126 82.8507 27.5888C82.4918 27.865 81.9899 28.0035 81.3457 28.0035C80.5171 28.0035 79.7619 27.7648 79.0809 27.2851C78.3992 26.8061 77.8659 26.1619 77.4787 25.3516L74.6616 26.6776C75.1038 27.9852 75.9225 29.0257 77.1199 29.7985C78.3166 30.572 79.7252 30.9584 81.3457 30.9584C82.5056 30.9584 83.5095 30.7649 84.3564 30.3785C85.2034 29.9921 85.8706 29.4534 86.3588 28.7625C86.8462 28.0724 87.091 27.2667 87.091 26.3455C87.091 25.2782 86.7597 24.3707 86.0963 23.6247C85.433 22.8787 84.4758 22.3225 83.2241 21.9537L80.8208 21.2352C80.4711 21.1251 80.162 21.0049 79.8958 20.8764C79.6287 20.7478 79.426 20.591 79.2883 20.4066C79.1498 20.223 79.0809 20.0019 79.0809 19.744C79.0809 19.3209 79.2508 18.9804 79.592 18.7218V18.7226Z" fill="#212B46"/>
<path d="M52.7752 15.6016H48.9633V30.6271H52.7752V15.6016Z" fill="#212B46"/>
<path d="M36.866 30.6271H40.6495V18.9437H45.4285V15.6016H36.866V30.6271Z" fill="#212B46"/>
<path d="M52.8027 9.02765H48.9083V12.9497H52.8027V9.02765Z" fill="#212B46"/>
<path d="M6.86924 19.275C7.46757 18.907 8.14394 18.7226 8.89911 18.7226C9.72774 18.7226 10.4638 18.9483 11.1088 19.399C11.753 19.8504 12.2136 20.4533 12.4898 21.2085L15.8044 19.7723C15.4907 18.8519 14.9987 18.06 14.3269 17.3966C13.6544 16.734 12.8533 16.2138 11.9237 15.8358C10.9933 15.4586 9.98559 15.2696 8.89911 15.2696C7.38876 15.2696 6.03525 15.6055 4.8386 16.278C3.64118 16.9506 2.70237 17.8802 2.02141 19.0677C1.33969 20.2551 0.999207 21.5949 0.999207 23.0869C0.999207 24.5789 1.34428 25.9178 2.03518 27.1061C2.72609 28.2943 3.6649 29.2331 4.85237 29.9233C6.03984 30.6134 7.38876 30.9592 8.89911 30.9592C10.004 30.9592 11.0208 30.7657 11.9512 30.3793C12.8808 29.9929 13.6819 29.4588 14.3544 28.7771C15.0262 28.0961 15.5098 27.3318 15.8044 26.4848L12.4898 24.9936C12.2136 25.7671 11.7576 26.3792 11.1226 26.8306C10.4875 27.282 9.74611 27.507 8.89911 27.507C8.14394 27.507 7.4668 27.3188 6.86924 26.9408C6.27091 26.5636 5.79654 26.0433 5.44687 25.3799C5.09721 24.7173 4.922 23.9622 4.922 23.1152C4.922 22.2682 5.09645 21.4855 5.44687 20.8229C5.79654 20.1603 6.27091 19.6446 6.86924 19.2758V19.275Z" fill="#212B46"/>
<path d="M68.3225 16.278C67.1251 15.6062 65.7815 15.2696 64.2895 15.2696C62.7976 15.2696 61.4724 15.6055 60.2566 16.278C59.0416 16.9506 58.079 17.8756 57.3705 19.0539C56.6613 20.2322 56.307 21.5857 56.307 23.1144C56.307 24.6431 56.6659 25.9454 57.3843 27.1336C58.1028 28.3211 59.0645 29.2561 60.2704 29.937C61.4762 30.6188 62.8159 30.9592 64.2895 30.9592C65.7632 30.9592 67.1021 30.6188 68.3087 29.937C69.5146 29.2561 70.4771 28.3257 71.1948 27.1474C71.9132 25.9691 72.2721 24.6248 72.2721 23.1144C72.2721 21.6041 71.9132 20.233 71.1948 19.0539C70.4763 17.8756 69.5192 16.9506 68.3225 16.278ZM67.8114 25.3792C67.4702 26.0418 66.9966 26.5628 66.3891 26.94C65.7815 27.318 65.0815 27.5062 64.2895 27.5062C63.4976 27.5062 62.7983 27.318 62.19 26.94C61.5825 26.5628 61.1036 26.0425 60.7539 25.3792C60.4042 24.7166 60.229 23.9614 60.229 23.1144C60.229 22.2674 60.4035 21.4893 60.7539 20.8359C61.1036 20.1825 61.5825 19.6668 62.19 19.2888C62.7976 18.9116 63.4976 18.7226 64.2895 18.7226C65.0815 18.7226 65.7808 18.9116 66.3891 19.2888C66.9966 19.6668 67.4709 20.1825 67.8114 20.8359C68.1519 21.4901 68.3225 22.2491 68.3225 23.1144C68.3225 23.9798 68.1519 24.7166 67.8114 25.3792Z" fill="#212B46"/>
<path d="M138.907 17.1762L139.084 17.0201C141.023 15.3177 141.688 12.6574 140.778 10.2426C139.869 7.82789 137.614 6.2678 135.034 6.2678H125.767L125.721 6.03979C125.216 3.50953 123.244 1.6036 120.698 1.18431C118.153 0.765026 115.674 1.93796 114.384 4.17212L109.752 12.1945L109.532 12.1195C107.088 11.2916 104.452 12.046 102.816 14.0415C101.18 16.0369 100.956 18.7692 102.246 21.0041L106.877 29.0264L106.702 29.1802C104.763 30.8826 104.098 33.5429 105.008 35.9577C105.918 38.3724 108.172 39.9325 110.753 39.9325H120.017L120.063 40.1605C120.567 42.6908 122.539 44.5967 125.085 45.016C125.428 45.0726 125.77 45.1002 126.108 45.1002C128.277 45.1002 130.284 43.9616 131.4 42.0282L136.028 34.0127L136.258 34.0908C136.917 34.3134 137.588 34.4221 138.252 34.4221C140.05 34.4221 141.779 33.6263 142.974 32.1688C144.61 30.1733 144.834 27.4411 143.543 25.2062L138.908 17.1769L138.907 17.1762ZM135.033 9.55783C136.487 9.55783 137.364 10.5104 137.699 11.4025C138.035 12.2947 138.005 13.5885 136.914 14.548L136.191 15.183H129.999C128.574 15.183 127.337 14.1685 127.057 12.7706L126.416 9.5586H135.034L135.033 9.55783ZM117.232 5.81714C117.959 4.55851 119.222 4.27542 120.163 4.43074C121.103 4.58529 122.209 5.2586 122.493 6.68403L122.682 7.62742L119.586 12.9894C118.873 14.2243 117.375 14.7882 116.025 14.3307L112.922 13.2802L117.231 5.81714H117.232ZM105.094 19.3591C104.368 18.1004 104.755 16.8648 105.359 16.128C105.818 15.5679 106.585 15.0751 107.53 15.0751C107.828 15.0751 108.145 15.1241 108.475 15.2366L109.387 15.5449L112.482 20.9069C113.196 22.1418 112.935 23.7203 111.864 24.6614L109.403 26.8229L105.094 19.3591ZM110.753 36.6417C109.3 36.6417 108.423 35.6891 108.087 34.797C107.751 33.9049 107.781 32.611 108.873 31.6516L109.596 31.0165H115.787C117.212 31.0165 118.45 32.0311 118.729 33.4289L119.37 36.6409H110.752L110.753 36.6417ZM121.955 32.7855C121.37 29.8543 118.776 27.7265 115.787 27.7265H113.358L114.036 27.132C116.281 25.1595 116.827 21.8496 115.333 19.2604L114.118 17.157L114.971 17.4463C115.632 17.6697 116.308 17.7768 116.978 17.7768C119.177 17.7768 121.291 16.6184 122.437 14.6337L123.654 12.525L123.832 13.4133C124.417 16.3445 127.011 18.4723 130 18.4723H132.441L131.753 19.0767C129.507 21.0492 128.962 24.3592 130.456 26.9483L131.665 29.0417L130.812 28.7525C127.981 27.7938 124.841 28.9767 123.346 31.5651L122.132 33.6684L121.955 32.7855ZM128.549 40.3824C127.822 41.641 126.559 41.9241 125.619 41.7688C124.679 41.6142 123.572 40.9409 123.288 39.5155L123.1 38.5721L126.196 33.2101C126.909 31.9752 128.406 31.4113 129.757 31.8689L132.859 32.9194L128.551 40.3824H128.549ZM140.429 30.0815C139.824 30.8183 138.688 31.4396 137.311 30.9737L136.4 30.6653L133.305 25.3033C132.591 24.0684 132.852 22.49 133.923 21.5489L136.384 19.3874L140.693 26.8504C141.419 28.109 141.033 29.3447 140.429 30.0815Z" fill="#212B46"/>
</g>
<defs>
<clipPath id="clip0_160_860">
<rect width="144" height="45" fill="white" transform="translate(0.5 0.700073)"/>
</clipPath>
</defs>
</svg>
